HIERARCHY
ROOT Hips
{
	OFFSET 0.00000 0.00000 0.00000
	CHANNELS 6 Xposition Yposition Zposition Yrotation Zrotation Xrotation 
	JOINT Lumbar
	{
		OFFSET 0 0 0
		CHANNELS 3 Zrotation Xrotation Yrotation
		JOINT Neck
		{
			OFFSET 0.00 0.2701 0.00
			CHANNELS 3 Zrotation Xrotation Yrotation
			End Site
			{
				OFFSET 0.00 0.1379 0.00
			}
		}
		JOINT RightShoulder
		{
			OFFSET 0.0119 0.2289 0.1181
			CHANNELS 3 Zrotation Xrotation Yrotation
			JOINT RightElbow
			{
				OFFSET 0.00 -0.1475 0.00
				CHANNELS 2 Zrotation Yrotation
				JOINT RightWrist
				{
					OFFSET 0.00 -0.1605 0.00
					CHANNELS 2 Zrotation Xrotation
					End Site
					{
						OFFSET 0.0040 -0.1068 0.0006
					}
				}
			}
		}
		JOINT LeftShoulder
		{
			OFFSET 0.0119 0.2289 -0.1181
			CHANNELS 3 Zrotation Xrotation Yrotation
			JOINT LeftElbow
			{
				OFFSET 0.00 -0.1475 0.00
				CHANNELS 2 Zrotation Yrotation
				JOINT LeftWrist
				{
					OFFSET 0.00 -0.1605 0.00
					CHANNELS 2 Zrotation Xrotation
					End Site
					{
						OFFSET 0.0040 -0.1068 -0.0006
					}
				}
			}
		}
	}
	JOINT RightHip
	{
		OFFSET 0.0316 -0.0424 0.0458
		CHANNELS 3 Zrotation Xrotation Yrotation
		JOINT RightKnee
		{
			OFFSET 0.00 -0.2438 0.00
			CHANNELS 1 Zrotation
			JOINT RightAnkle
			{
				OFFSET 0.00 -0.2449 0.00
				CHANNELS 3 Zrotation Xrotation Yrotation
				End Site
				{
					OFFSET 0.1237 -0.0542 0.0051
				}
			}
		}
	}
	JOINT LeftHip
	{
		OFFSET 0.0316 -0.0424 -0.0458
		CHANNELS 3 Zrotation Xrotation Yrotation
		JOINT LeftKnee
		{
			OFFSET 0.00 -0.2438 0.00
			CHANNELS 1 Zrotation
			JOINT LeftAnkle
			{
				OFFSET 0.00 -0.2449 0.00
				CHANNELS 3 Zrotation Xrotation Yrotation
				End Site
				{
					OFFSET 0.1237 -0.0542 -0.0051
				}
			}
		}
	}
}
MOTION
Frames: 23
Frame Time: 0.02
-0.90986 0.55366 -0.51624 557.29437 0 -4.72574 -56.06391 4.85937 -4.98018 -65.6042 4.34625 -21.78942 125.68532 10.6086 63.6952 22.80864 89.16316 -0.94238 1.50162 91.63334 64.50499 18.14992 8.51799 -113.50414 -27.41399 8.35756 16.95108 3.49395 -8.24443 -20.70893 0.3806 -2.88913 -2.0405 21.05903 15.55642 7.09183 -28.3632 12.20571 1.38292 -0.87288
-0.91114 0.55361 -0.51626 557.64126 0 -4.68355 -56.06391 4.56481 0.18129 -67.08132 9.80374 -23.08298 127.78437 12.00398 63.77318 20.93537 88.27652 -1.45111 1.28994 95.81985 65.1524 26.85352 8.28321 -116.48079 -25.65764 9.39947 17.02208 3.39971 -8.4533 -21.16806 0.6393 -2.95238 -2.21072 20.44764 15.15007 6.3378 -26.97845 10.99309 1.90958 0.28989
-0.91224 0.55345 -0.51567 557.74754 0 -4.62514 -56.06392 4.11304 7.99834 -68.20439 16.57342 -22.27287 129.8032 11.1699 62.5357 17.79483 86.61241 -2.51814 0.7559 101.3333 62.10189 36.2398 7.98465 -119.52345 -22.56754 10.77753 17.18953 3.25908 -8.65416 -21.73517 0.91025 -2.9661 -2.21506 19.69788 14.66067 5.16521 -25.54406 9.035 2.69055 1.94399
-0.91343 0.55334 -0.51534 557.98043 0 -4.578 -56.06392 3.7497 14.42146 -69.46771 22.59365 -22.45539 131.80444 11.39227 61.81908 15.31452 85.34552 -3.28768 0.37718 106.16367 60.8242 45.07374 7.72998 -122.02348 -20.04401 11.94452 17.30469 3.1399 -8.8599 -22.24392 1.17438 -3.0051 -2.30229 19.03648 14.21965 4.20638 -24.17418 7.47329 3.32744 3.31581
-0.91461 0.55322 -0.51504 558.14539 0 -4.51553 -56.06392 3.316 21.62272 -70.8105 29.28143 -22.5869 133.99775 11.51608 61.39455 12.50405 83.91518 -4.23212 -0.03261 111.30719 59.27968 54.92873 7.423 -126.61713 -17.68981 13.3543 17.45329 3.0183 -9.05528 -22.7898 1.44384 -3.0346 -2.36318 18.26211 13.72866 3.14991 -22.61213 5.68167 4.08588 4.94118
-0.91576 0.5531 -0.51455 558.39212 0 -4.481 -56.06392 2.99082 27.84318 -71.90523 34.88103 -22.27311 135.78741 11.26876 60.08594 10.07146 82.63191 -4.95059 -0.45532 116.11454 57.34881 62.83029 7.20456 -126.96686 -14.68689 14.34057 17.55504 2.89122 -9.27357 -23.28298 1.70466 -3.07075 -2.43597 17.69079 13.32418 2.19862 -21.44218 4.18722 4.65182 6.15407
-0.91687 0.55302 -0.51369 558.93137 0 -4.52385 -56.06392 3.0055 30.64389 -72.41871 37.16955 -21.39726 136.46178 10.72634 56.35585 8.97891 81.94979 -4.88429 -0.85086 119.77568 55.4661 65.02975 7.26124 -114.65332 -9.94866 14.06214 17.51609 2.75831 -9.54096 -23.62656 1.94386 -3.14389 -2.60067 17.73258 13.17637 1.61597 -21.39533 3.69047 4.61494 6.10019
-0.91795 0.55294 -0.51265 559.5588 0 -4.59587 -56.06392 3.13397 32.37669 -72.69283 38.31199 -20.10733 136.74121 9.84674 51.83615 8.30892 81.43899 -4.57676 -1.24646 123.03843 53.27198 65.26015 7.40518 -98.23019 -4.64827 13.34898 17.42497 2.62202 -9.83491 -23.9099 2.173 -3.22396 -2.77902 17.9813 13.11961 1.15685 -21.74274 3.51756 4.37718 5.61565
-0.91905 0.55287 -0.51169 560.14053 0 -4.65672 -56.06392 3.20947 34.64174 -73.0667 39.96676 -18.89042 137.21985 8.98684 47.87987 7.45059 80.84299 -4.39677 -1.6325 126.41759 51.06288 66.48833 7.49789 -84.30474 0.21886 12.84323 17.35005 2.48859 -10.12819 -24.20665 2.40343 -3.29641 -2.93866 18.12378 13.02361 0.65746 -21.8927 3.19786 4.23675 5.33156
-0.92014 0.55276 -0.51074 560.73907 0 -4.70815 -56.06392 3.28629 36.80771 -73.46639 41.70404 -18.07656 137.6124 8.60037 43.02385 6.53344 80.24947 -4.16107 -2.06953 130.1123 49.3717 67.32364 7.63708 -67.75287 5.87458 12.30615 17.30972 2.34762 -10.37427 -24.56569 2.64829 -3.38616 -3.1458 18.31172 12.91579 0.0796 -22.11479 2.85069 4.0788 5.04171
-0.92124 0.55273 -0.50972 561.32492 0 -4.78641 -56.06392 3.38757 38.88371 -73.75983 42.97959 -16.36623 138.09084 7.19382 39.85903 5.85491 79.70375 -3.97616 -2.39664 133.04175 46.59529 68.47859 7.70138 -55.65569 10.01406 11.72857 17.18424 2.22254 -10.7235 -24.77976 2.86034 -3.44199 -3.25887 18.4573 12.85504 -0.30385 -22.28474 2.64742 3.90748 4.65894
-0.92239 0.55292 -0.50854 561.87004 0 -4.93087 -56.06392 3.54525 41.02889 -73.82259 43.25695 -12.16492 138.9112 2.91156 41.671 5.74305 79.23256 -3.99421 -2.41508 133.91695 40.74184 71.17888 7.53423 -57.20245 9.73496 11.12729 16.83168 2.13903 -11.3648 -24.60394 2.98607 -3.40413 -3.11422 18.42432 12.90513 -0.14524 -22.18281 2.76467 3.7367 4.08923
-0.92355 0.55319 -0.50728 562.39756 0 -5.10142 -56.06392 3.72138 43.09608 -73.78769 43.10291 -7.10804 139.8303 -2.34812 45.19692 5.86109 78.81065 -4.06817 -2.32221 134.03594 33.85447 74.22881 7.28978 -63.31206 7.9205 10.50161 16.39576 2.07232 -12.10641 -24.28475 3.07875 -3.33186 -2.87441 18.3442 12.99929 0.2009 -22.02073 3.01886 3.56011 3.44464
-0.92471 0.55342 -0.50606 562.92389 0 -5.26074 -56.06392 3.87878 45.14914 -73.79665 43.14239 -2.52953 140.69977 -7.05668 47.87121 5.87274 78.37975 -4.11142 -2.28214 134.52042 27.56151 77.00003 7.08299 -67.10931 6.86536 9.89776 16.00049 2.00033 -12.79325 -24.03329 3.18528 -3.27447 -2.6753 18.29372 13.07167 0.43919 -21.90744 3.21248 3.39279 2.85581
-0.92586 0.55367 -0.50485 563.49193 0 -5.4189 -56.06392 4.08337 47.37765 -73.79938 43.15456 2.4437 141.57677 -12.23037 50.82706 5.90588 77.89627 -4.16926 -2.23314 134.90152 20.7297 80.22011 6.86784 -71.7658 5.57486 9.235 15.59131 1.91873 -13.52012 -23.76821 3.29628 -3.22039 -2.4867 18.21619 13.15461 0.77431 -21.71832 3.40979 3.1914 2.16227
-0.92702 0.55389 -0.50359 563.96779 0 -5.58467 -56.06391 4.19302 49.2336 -73.79484 43.13452 6.79119 142.46508 -16.66206 53.61021 5.94416 77.53373 -4.21274 -2.176 135.3211 14.77907 82.59974 6.65145 -75.77641 4.39736 8.69303 15.19255 1.8606 -14.18668 -23.4991 3.3904 -3.15129 -2.25422 18.18048 13.22476 0.95415 -21.66643 3.62796 3.06121 1.67238
-0.92818 0.55404 -0.5022 564.19373 0 -5.77021 -56.06392 4.03222 50.09877 -73.7975 43.14623 9.20394 143.37557 -18.80485 55.535 5.93494 77.47738 -4.20612 -2.12543 136.05115 11.5259 82.67034 6.44402 -76.85164 3.94618 8.50485 14.83826 1.86821 -14.66493 -23.2467 3.4447 -3.04802 -1.91784 18.27658 13.24904 0.62948 -22.01723 3.86826 3.138 1.78373
-0.92934 0.55417 -0.50075 564.32721 0 -5.96129 -56.06392 3.77565 50.59293 -73.79682 43.14318 10.95342 144.29266 -20.16463 57.22381 5.92202 77.54291 -4.18379 -2.07016 136.84434 9.19674 81.85341 6.23946 -77.14758 3.65153 8.43708 14.49849 1.8979 -15.07806 -22.99691 3.48342 -2.9311 -1.54201 18.41437 13.25827 0.14679 -22.50422 4.12345 3.28598 2.10098
-0.9305 0.5543 -0.49934 564.50215 0 -6.14646 -56.06392 3.56446 51.25002 -73.79669 43.14258 13.00419 145.19952 -21.88251 59.00001 5.91236 77.56254 -4.16757 -2.0158 137.59786 6.43704 81.41594 6.03654 -77.84322 3.2569 8.30881 14.15536 1.91423 -15.51945 -22.75085 3.53018 -2.82098 -1.18767 18.52909 13.27399 -0.24424 -22.92136 4.37181 3.39645 2.31249
-0.93168 0.55444 -0.49791 564.67816 0 -6.34732 -56.06392 3.34499 51.92892 -73.79706 43.1442 15.09075 146.14236 -23.62843 60.91957 5.90421 77.54515 -4.15705 -1.96266 138.37093 3.67904 81.17773 5.81574 -78.49954 2.93084 8.20981 13.7955 1.94533 -15.97128 -22.47869 3.57179 -2.7067 -0.81348 18.66022 13.29344 -0.71138 -23.37156 4.62622 3.52824 2.57212
-0.93281 0.55456 -0.49649 564.83111 0 -6.5159 -56.06392 3.12122 52.4739 -73.7969 43.14344 16.9277 147.00776 -25.11318 62.46194 5.8891 77.63165 -4.13078 -1.90742 139.12836 1.15897 80.19968 5.6374 -78.99825 2.51906 8.07127 13.4752 1.95048 -16.38297 -22.26377 3.62077 -2.59883 -0.47441 18.767 13.30012 -1.06134 -23.78435 4.86874 3.6328 2.78189
-0.93382 0.55465 -0.49508 564.93466 0 -6.59865 -56.06392 2.89636 52.75438 -73.79693 43.14361 18.2853 147.68131 -26.09599 63.01519 5.85312 77.98778 -4.06032 -1.84709 139.82814 -0.99628 78.37391 5.54773 -79.19715 1.83964 7.86283 13.25973 1.88018 -16.71283 -22.20384 3.69467 -2.50752 -0.22596 18.80158 13.28203 -1.03866 -24.07409 5.08218 3.64388 2.80115
-0.93479 0.55473 -0.49368 565.01956 0 -6.64764 -56.06392 2.67269 52.9106 -73.7969 43.14349 19.40041 148.2714 -26.83219 63.18888 5.80952 78.44166 -3.97517 -1.78541 140.51255 -2.92594 75.67741 5.50783 -79.25138 1.07543 7.60011 13.08425 1.78256 -17.00152 -22.20266 3.77645 -2.42415 -0.01757 18.80931 13.25002 -0.89576 -24.31912 5.28098 3.62554 2.76433
